<?xml version="1.0" encoding="utf-8"?>
<!-- Generator: Adobe Illustrator 19.2.1, SVG Export Plug-In . SVG Version: 6.00 Build 0)  -->
<svg version="1.1" id="Capa_1" xmlns="http://www.w3.org/2000/svg" xmlns:xlink="http://www.w3.org/1999/xlink" x="0px" y="0px"
	 viewBox="0 0 1117.97 200.862" enable-background="new 0 0 1117.97 200.862" xml:space="preserve">
<filter  id="AI_DesenfoqueGaussiano_7">
	<feGaussianBlur  stdDeviation="7"></feGaussianBlur>
</filter>
<g>
	<g>
		<g>
			<path fill="#FFFFFF" d="M73.268,60.586h9.201c14.201,0,27.602,3.7,27.602,20.701c0,5.5-3,11.9-8.101,14.301v0.2
				c8.901,1.6,15.101,10.301,15.101,19.101c0,15.102-12.901,21.102-26.202,21.102H73.268V60.586z M82.668,93.988h2.4
				c8.9,0,16.201-1.8,16.201-12.601c0-10.601-7.201-12.4-16.001-12.4h-2.601V93.988z M82.668,127.59h7.201
				c8.701,0,17.801-2.601,17.801-13.301c0-10.601-10.801-12.801-19.201-12.801h-5.801V127.59z"/>
			<path fill="#FFFFFF" d="M231.271,98.288c0,22.401-17.701,39.302-39.502,39.302c-21.801,0-39.502-16.9-39.502-39.302
				c0-21.602,17.901-39.303,39.502-39.303C213.37,58.986,231.271,76.687,231.271,98.288z M221.871,98.288
				c0-16.602-12.401-30.502-30.102-30.502c-17.701,0-30.102,13.9-30.102,30.502c0,17.201,13.801,30.502,30.102,30.502
				C208.07,128.79,221.871,115.49,221.871,98.288z M209.769,98.288c0-9.797-7.415-18-18-18c-10.585,0-18,8.203-18,18
				c0,10.151,8.252,18,18,18C201.517,116.288,209.769,108.439,209.769,98.288z"/>
			<path fill="#FFFFFF" d="M278.466,80.588v24.5c0,12.301,3.7,23.702,18.201,23.702s18.201-11.401,18.201-23.702v-24.5h9.4v27.7
				c0,16.602-10.3,29.302-27.602,29.302c-17.301,0-27.602-12.7-27.602-29.302v-27.7H278.466z"/>
			<path fill="#FFFFFF" d="M366.364,56.986l56.604,59.304V80.588h9.4v58.503l-56.603-59.304v36.201h-9.401V56.986z"/>
			<path fill="#FFFFFF" d="M728.163,60.586h9.2c14.201,0,27.602,3.7,27.602,20.701c0,5.5-3,11.9-8.101,14.301v0.2
				c8.901,1.6,15.102,10.301,15.102,19.101c0,15.102-12.901,21.102-26.202,21.102h-17.601V60.586z M737.563,93.988h2.4
				c8.9,0,16.201-1.8,16.201-12.601c0-10.601-7.201-12.4-16.001-12.4h-2.601V93.988z M737.563,127.59h7.2
				c8.701,0,17.802-2.601,17.802-13.301c0-10.601-10.801-12.801-19.201-12.801h-5.801V127.59z"/>
			<path fill="#FFFFFF" d="M1032.26,60.586h12.301l-33.902,33.901l34.503,41.503h-12.701l-28.401-35.103l-3.801,3.601v31.502h-9.4
				V60.586h9.4v32.702L1032.26,60.586z"/>
			<path fill="#FFFFFF" d="M512.215,128.937c-1,0.032-1.104,0.054-1.668,0.054c-16.801,0-29.593-14.102-29.593-30.603
				c0-16.701,12.887-30.802,29.788-30.802c0.494,0,1.472,0.016,1.472,0.041v-8.623c0-0.003-0.373-0.018-0.568-0.018
				c-22.201,0-40.094,17.401-40.094,39.702c0,21.802,17.788,38.902,39.289,38.902c0.456,0,1.372-0.031,1.372-0.049V128.937z"/>
			<path fill="#FFFFFF" d="M950.215,128.964c0,0.014-0.509,0.026-0.877,0.026c-16.801,0-29.49-14.102-29.49-30.603
				c0-16.701,12.733-30.802,29.634-30.802c0.299,0,0.732,0.011,0.732,0.021v-8.621c-22,0-39.879,17.401-39.879,39.702
				c0,21.802,17.689,38.902,39.191,38.902c0.263,0,0.688-0.022,0.688-0.028V128.964z"/>
			<g>
				<rect x="554.999" y="60.326" fill="#FFFFFF" width="40.503" height="8.66"/>
				<rect x="554.999" y="93.699" fill="#FFFFFF" width="40.503" height="8.66"/>
				<rect x="554.999" y="127.071" fill="#FFFFFF" width="40.503" height="8.66"/>
			</g>
			<path fill="#FFFFFF" d="M824.86,117.089l-8.601,18.901h-10.101l36.002-78.604l36.002,78.604h-10.101l-8.6-18.901H824.86z
				 M842.16,77.987l-13.4,30.502h26.802L842.16,77.987z"/>
			<g>
				<path fill="#FFFFFF" d="M686.317,135.99h-11.4l-22.201-31.902h-3.9v31.902h-9.4V60.586h11.4c6.701,0,13.9,0.1,19.901,3.5
					c6.3,3.7,9.9,10.801,9.9,18.001c0,10.801-7.2,19.801-18.101,21.102L686.317,135.99z M648.815,96.288h3
					c9.601,0,20.002-1.801,20.002-13.801c0-11.801-11.201-13.501-20.502-13.501h-2.5V96.288z"/>
			</g>
		</g>
		<g>
			<path fill="#FFFFFF" d="M73.268,60.586h9.201c14.201,0,27.602,3.7,27.602,20.701c0,5.5-3,11.9-8.101,14.301v0.2
				c8.901,1.6,15.101,10.301,15.101,19.101c0,15.102-12.901,21.102-26.202,21.102H73.268V60.586z M82.668,93.988h2.4
				c8.9,0,16.201-1.8,16.201-12.601c0-10.601-7.201-12.4-16.001-12.4h-2.601V93.988z M82.668,127.59h7.201
				c8.701,0,17.801-2.601,17.801-13.301c0-10.601-10.801-12.801-19.201-12.801h-5.801V127.59z"/>
			<path fill="#FFFFFF" d="M231.271,98.288c0,22.401-17.701,39.302-39.502,39.302c-21.801,0-39.502-16.9-39.502-39.302
				c0-21.602,17.901-39.303,39.502-39.303C213.37,58.986,231.271,76.687,231.271,98.288z M221.871,98.288
				c0-16.602-12.401-30.502-30.102-30.502c-17.701,0-30.102,13.9-30.102,30.502c0,17.201,13.801,30.502,30.102,30.502
				C208.07,128.79,221.871,115.49,221.871,98.288z M209.769,98.288c0-9.797-7.415-18-18-18c-10.585,0-18,8.203-18,18
				c0,10.151,8.252,18,18,18C201.517,116.288,209.769,108.439,209.769,98.288z"/>
			<path fill="#FFFFFF" d="M278.466,80.588v24.5c0,12.301,3.7,23.702,18.201,23.702s18.201-11.401,18.201-23.702v-24.5h9.4v27.7
				c0,16.602-10.3,29.302-27.602,29.302c-17.301,0-27.602-12.7-27.602-29.302v-27.7H278.466z"/>
			<path fill="#FFFFFF" d="M366.364,56.986l56.604,59.304V80.588h9.4v58.503l-56.603-59.304v36.201h-9.401V56.986z"/>
			<path fill="#FFFFFF" d="M728.163,60.586h9.2c14.201,0,27.602,3.7,27.602,20.701c0,5.5-3,11.9-8.101,14.301v0.2
				c8.901,1.6,15.102,10.301,15.102,19.101c0,15.102-12.901,21.102-26.202,21.102h-17.601V60.586z M737.563,93.988h2.4
				c8.9,0,16.201-1.8,16.201-12.601c0-10.601-7.201-12.4-16.001-12.4h-2.601V93.988z M737.563,127.59h7.2
				c8.701,0,17.802-2.601,17.802-13.301c0-10.601-10.801-12.801-19.201-12.801h-5.801V127.59z"/>
			<path fill="#FFFFFF" d="M1032.26,60.586h12.301l-33.902,33.901l34.503,41.503h-12.701l-28.401-35.103l-3.801,3.601v31.502h-9.4
				V60.586h9.4v32.702L1032.26,60.586z"/>
			<path fill="#FFFFFF" d="M512.215,128.937c-1,0.032-1.104,0.054-1.668,0.054c-16.801,0-29.593-14.102-29.593-30.603
				c0-16.701,12.887-30.802,29.788-30.802c0.494,0,1.472,0.016,1.472,0.041v-8.623c0-0.003-0.373-0.018-0.568-0.018
				c-22.201,0-40.094,17.401-40.094,39.702c0,21.802,17.788,38.902,39.289,38.902c0.456,0,1.372-0.031,1.372-0.049V128.937z"/>
			<path fill="#FFFFFF" d="M950.215,128.964c0,0.014-0.509,0.026-0.877,0.026c-16.801,0-29.49-14.102-29.49-30.603
				c0-16.701,12.733-30.802,29.634-30.802c0.299,0,0.732,0.011,0.732,0.021v-8.621c-22,0-39.879,17.401-39.879,39.702
				c0,21.802,17.689,38.902,39.191,38.902c0.263,0,0.688-0.022,0.688-0.028V128.964z"/>
			<g>
				<rect x="554.999" y="60.326" fill="#FFFFFF" width="40.503" height="8.66"/>
				<rect x="554.999" y="93.699" fill="#FFFFFF" width="40.503" height="8.66"/>
				<rect x="554.999" y="127.071" fill="#FFFFFF" width="40.503" height="8.66"/>
			</g>
			<path fill="#FFFFFF" d="M824.86,117.089l-8.601,18.901h-10.101l36.002-78.604l36.002,78.604h-10.101l-8.6-18.901H824.86z
				 M842.16,77.987l-13.4,30.502h26.802L842.16,77.987z"/>
			<g>
				<path fill="#FFFFFF" d="M686.317,135.99h-11.4l-22.201-31.902h-3.9v31.902h-9.4V60.586h11.4c6.701,0,13.9,0.1,19.901,3.5
					c6.3,3.7,9.9,10.801,9.9,18.001c0,10.801-7.2,19.801-18.101,21.102L686.317,135.99z M648.815,96.288h3
					c9.601,0,20.002-1.801,20.002-13.801c0-11.801-11.201-13.501-20.502-13.501h-2.5V96.288z"/>
			</g>
		</g>
		<g>
			<path fill="none" stroke="#6EC5D7" d="M73.268,60.586h9.201c14.201,0,27.602,3.7,27.602,20.701c0,5.5-3,11.9-8.101,14.301v0.2
				c8.901,1.6,15.101,10.301,15.101,19.101c0,15.102-12.901,21.102-26.202,21.102H73.268V60.586z M82.668,93.988h2.4
				c8.9,0,16.201-1.8,16.201-12.601c0-10.601-7.201-12.4-16.001-12.4h-2.601V93.988z M82.668,127.59h7.201
				c8.701,0,17.801-2.601,17.801-13.301c0-10.601-10.801-12.801-19.201-12.801h-5.801V127.59z"/>
			<path fill="none" stroke="#6EC5D7" d="M231.271,98.288c0,22.401-17.701,39.302-39.502,39.302
				c-21.801,0-39.502-16.9-39.502-39.302c0-21.602,17.901-39.303,39.502-39.303C213.37,58.986,231.271,76.687,231.271,98.288z
				 M221.871,98.288c0-16.602-12.401-30.502-30.102-30.502c-17.701,0-30.102,13.9-30.102,30.502
				c0,17.201,13.801,30.502,30.102,30.502C208.07,128.79,221.871,115.49,221.871,98.288z M209.769,98.288c0-9.797-7.415-18-18-18
				c-10.585,0-18,8.203-18,18c0,10.151,8.252,18,18,18C201.517,116.288,209.769,108.439,209.769,98.288z"/>
			<path fill="none" stroke="#6EC5D7" d="M278.466,80.588v24.5c0,12.301,3.7,23.702,18.201,23.702s18.201-11.401,18.201-23.702
				v-24.5h9.4v27.7c0,16.602-10.3,29.302-27.602,29.302c-17.301,0-27.602-12.7-27.602-29.302v-27.7H278.466z"/>
			<path fill="none" stroke="#6EC5D7" d="M366.364,56.986l56.604,59.304V80.588h9.4v58.503l-56.603-59.304v36.201h-9.401V56.986z"/>
			<path fill="none" stroke="#6EC5D7" d="M728.163,60.586h9.2c14.201,0,27.602,3.7,27.602,20.701c0,5.5-3,11.9-8.101,14.301v0.2
				c8.901,1.6,15.102,10.301,15.102,19.101c0,15.102-12.901,21.102-26.202,21.102h-17.601V60.586z M737.563,93.988h2.4
				c8.9,0,16.201-1.8,16.201-12.601c0-10.601-7.201-12.4-16.001-12.4h-2.601V93.988z M737.563,127.59h7.2
				c8.701,0,17.802-2.601,17.802-13.301c0-10.601-10.801-12.801-19.201-12.801h-5.801V127.59z"/>
			<path fill="none" stroke="#6EC5D7" d="M1032.26,60.586h12.301l-33.902,33.901l34.503,41.503h-12.701l-28.401-35.103l-3.801,3.601
				v31.502h-9.4V60.586h9.4v32.702L1032.26,60.586z"/>
			<path fill="none" stroke="#6EC5D7" d="M512.215,128.937c-1,0.032-1.104,0.054-1.668,0.054c-16.801,0-29.593-14.102-29.593-30.603
				c0-16.701,12.887-30.802,29.788-30.802c0.494,0,1.472,0.016,1.472,0.041v-8.623c0-0.003-0.373-0.018-0.568-0.018
				c-22.201,0-40.094,17.401-40.094,39.702c0,21.802,17.788,38.902,39.289,38.902c0.456,0,1.372-0.031,1.372-0.049V128.937z"/>
			<path fill="none" stroke="#6EC5D7" d="M950.215,128.964c0,0.014-0.509,0.026-0.877,0.026c-16.801,0-29.49-14.102-29.49-30.603
				c0-16.701,12.733-30.802,29.634-30.802c0.299,0,0.732,0.011,0.732,0.021v-8.621c-22,0-39.879,17.401-39.879,39.702
				c0,21.802,17.689,38.902,39.191,38.902c0.263,0,0.688-0.022,0.688-0.028V128.964z"/>
			<g>
				<rect x="554.999" y="60.326" fill="none" stroke="#6EC5D7" width="40.503" height="8.66"/>
				<rect x="554.999" y="93.699" fill="none" stroke="#6EC5D7" width="40.503" height="8.66"/>
				<rect x="554.999" y="127.071" fill="none" stroke="#6EC5D7" width="40.503" height="8.66"/>
			</g>
			<path fill="none" stroke="#6EC5D7" d="M824.86,117.089l-8.601,18.901h-10.101l36.002-78.604l36.002,78.604h-10.101l-8.6-18.901
				H824.86z M842.16,77.987l-13.4,30.502h26.802L842.16,77.987z"/>
			<g>
				<path fill="none" stroke="#6EC5D7" d="M686.317,135.99h-11.4l-22.201-31.902h-3.9v31.902h-9.4V60.586h11.4
					c6.701,0,13.9,0.1,19.901,3.5c6.3,3.7,9.9,10.801,9.9,18.001c0,10.801-7.2,19.801-18.101,21.102L686.317,135.99z
					 M648.815,96.288h3c9.601,0,20.002-1.801,20.002-13.801c0-11.801-11.201-13.501-20.502-13.501h-2.5V96.288z"/>
			</g>
		</g>
	</g>
	<g filter="url(#AI_DesenfoqueGaussiano_7)">
		<g>
			<path fill="#FFFFFF" d="M73.268,65.586h9.201c14.201,0,27.602,3.7,27.602,20.701c0,5.5-3,11.9-8.101,14.301v0.2
				c8.901,1.6,15.101,10.301,15.101,19.101c0,15.102-12.901,21.102-26.202,21.102H73.268V65.586z M82.668,98.988h2.4
				c8.9,0,16.201-1.8,16.201-12.601c0-10.601-7.201-12.4-16.001-12.4h-2.601V98.988z M82.668,132.59h7.201
				c8.701,0,17.801-2.601,17.801-13.301c0-10.601-10.801-12.801-19.201-12.801h-5.801V132.59z"/>
			<path fill="#FFFFFF" d="M231.271,103.288c0,22.401-17.701,39.302-39.502,39.302c-21.801,0-39.502-16.9-39.502-39.302
				c0-21.602,17.901-39.303,39.502-39.303C213.37,63.986,231.271,81.687,231.271,103.288z M221.871,103.288
				c0-16.602-12.401-30.502-30.102-30.502c-17.701,0-30.102,13.9-30.102,30.502c0,17.201,13.801,30.502,30.102,30.502
				C208.07,133.79,221.871,120.49,221.871,103.288z M209.769,103.288c0-9.797-7.415-18-18-18c-10.585,0-18,8.203-18,18
				c0,10.151,8.252,18,18,18C201.517,121.288,209.769,113.439,209.769,103.288z"/>
			<path fill="#FFFFFF" d="M278.466,85.588v24.5c0,12.301,3.7,23.702,18.201,23.702s18.201-11.401,18.201-23.702v-24.5h9.4v27.7
				c0,16.602-10.3,29.302-27.602,29.302c-17.301,0-27.602-12.7-27.602-29.302v-27.7H278.466z"/>
			<path fill="#FFFFFF" d="M366.364,61.986l56.604,59.304V85.588h9.4v58.503l-56.603-59.304v36.201h-9.401V61.986z"/>
			<path fill="#FFFFFF" d="M728.163,65.586h9.2c14.201,0,27.602,3.7,27.602,20.701c0,5.5-3,11.9-8.101,14.301v0.2
				c8.901,1.6,15.102,10.301,15.102,19.101c0,15.102-12.901,21.102-26.202,21.102h-17.601V65.586z M737.563,98.988h2.4
				c8.9,0,16.201-1.8,16.201-12.601c0-10.601-7.201-12.4-16.001-12.4h-2.601V98.988z M737.563,132.59h7.2
				c8.701,0,17.802-2.601,17.802-13.301c0-10.601-10.801-12.801-19.201-12.801h-5.801V132.59z"/>
			<path fill="#FFFFFF" d="M1032.26,65.586h12.301l-33.902,33.901l34.503,41.503h-12.701l-28.401-35.103l-3.801,3.601v31.502h-9.4
				V65.586h9.4v32.702L1032.26,65.586z"/>
			<path fill="#FFFFFF" d="M512.215,133.937c-1,0.032-1.104,0.054-1.668,0.054c-16.801,0-29.593-14.102-29.593-30.603
				c0-16.701,12.887-30.802,29.788-30.802c0.494,0,1.472,0.016,1.472,0.041v-8.623c0-0.003-0.373-0.018-0.568-0.018
				c-22.201,0-40.094,17.401-40.094,39.702c0,21.802,17.788,38.902,39.289,38.902c0.456,0,1.372-0.031,1.372-0.049V133.937z"/>
			<path fill="#FFFFFF" d="M950.215,133.964c0,0.014-0.509,0.026-0.877,0.026c-16.801,0-29.49-14.102-29.49-30.603
				c0-16.701,12.733-30.802,29.634-30.802c0.299,0,0.732,0.011,0.732,0.021v-8.621c-22,0-39.879,17.401-39.879,39.702
				c0,21.802,17.689,38.902,39.191,38.902c0.263,0,0.688-0.022,0.688-0.028V133.964z"/>
			<g>
				<rect x="554.999" y="65.326" fill="#FFFFFF" width="40.503" height="8.66"/>
				<rect x="554.999" y="98.699" fill="#FFFFFF" width="40.503" height="8.66"/>
				<rect x="554.999" y="132.071" fill="#FFFFFF" width="40.503" height="8.66"/>
			</g>
			<path fill="#FFFFFF" d="M824.86,122.089l-8.601,18.901h-10.101l36.002-78.604l36.002,78.604h-10.101l-8.6-18.901H824.86z
				 M842.16,82.987l-13.4,30.502h26.802L842.16,82.987z"/>
			<g>
				<path fill="#FFFFFF" d="M686.317,140.99h-11.4l-22.201-31.902h-3.9v31.902h-9.4V65.586h11.4c6.701,0,13.9,0.1,19.901,3.5
					c6.3,3.7,9.9,10.801,9.9,18.001c0,10.801-7.2,19.801-18.101,21.102L686.317,140.99z M648.815,101.288h3
					c9.601,0,20.002-1.801,20.002-13.801c0-11.801-11.201-13.501-20.502-13.501h-2.5V101.288z"/>
			</g>
		</g>
		<g>
			<path fill="#00FFFF" d="M73.268,65.586h9.201c14.201,0,27.602,3.7,27.602,20.701c0,5.5-3,11.9-8.101,14.301v0.2
				c8.901,1.6,15.101,10.301,15.101,19.101c0,15.102-12.901,21.102-26.202,21.102H73.268V65.586z M82.668,98.988h2.4
				c8.9,0,16.201-1.8,16.201-12.601c0-10.601-7.201-12.4-16.001-12.4h-2.601V98.988z M82.668,132.59h7.201
				c8.701,0,17.801-2.601,17.801-13.301c0-10.601-10.801-12.801-19.201-12.801h-5.801V132.59z"/>
			<path fill="#00FFFF" d="M231.271,103.288c0,22.401-17.701,39.302-39.502,39.302c-21.801,0-39.502-16.9-39.502-39.302
				c0-21.602,17.901-39.303,39.502-39.303C213.37,63.986,231.271,81.687,231.271,103.288z M221.871,103.288
				c0-16.602-12.401-30.502-30.102-30.502c-17.701,0-30.102,13.9-30.102,30.502c0,17.201,13.801,30.502,30.102,30.502
				C208.07,133.79,221.871,120.49,221.871,103.288z M209.769,103.288c0-9.797-7.415-18-18-18c-10.585,0-18,8.203-18,18
				c0,10.151,8.252,18,18,18C201.517,121.288,209.769,113.439,209.769,103.288z"/>
			<path fill="#00FFFF" d="M278.466,85.588v24.5c0,12.301,3.7,23.702,18.201,23.702s18.201-11.401,18.201-23.702v-24.5h9.4v27.7
				c0,16.602-10.3,29.302-27.602,29.302c-17.301,0-27.602-12.7-27.602-29.302v-27.7H278.466z"/>
			<path fill="#00FFFF" d="M366.364,61.986l56.604,59.304V85.588h9.4v58.503l-56.603-59.304v36.201h-9.401V61.986z"/>
			<path fill="#00FFFF" d="M728.163,65.586h9.2c14.201,0,27.602,3.7,27.602,20.701c0,5.5-3,11.9-8.101,14.301v0.2
				c8.901,1.6,15.102,10.301,15.102,19.101c0,15.102-12.901,21.102-26.202,21.102h-17.601V65.586z M737.563,98.988h2.4
				c8.9,0,16.201-1.8,16.201-12.601c0-10.601-7.201-12.4-16.001-12.4h-2.601V98.988z M737.563,132.59h7.2
				c8.701,0,17.802-2.601,17.802-13.301c0-10.601-10.801-12.801-19.201-12.801h-5.801V132.59z"/>
			<path fill="#00FFFF" d="M1032.26,65.586h12.301l-33.902,33.901l34.503,41.503h-12.701l-28.401-35.103l-3.801,3.601v31.502h-9.4
				V65.586h9.4v32.702L1032.26,65.586z"/>
			<path fill="#00FFFF" d="M512.215,133.937c-1,0.032-1.104,0.054-1.668,0.054c-16.801,0-29.593-14.102-29.593-30.603
				c0-16.701,12.887-30.802,29.788-30.802c0.494,0,1.472,0.016,1.472,0.041v-8.623c0-0.003-0.373-0.018-0.568-0.018
				c-22.201,0-40.094,17.401-40.094,39.702c0,21.802,17.788,38.902,39.289,38.902c0.456,0,1.372-0.031,1.372-0.049V133.937z"/>
			<path fill="#00FFFF" d="M950.215,133.964c0,0.014-0.509,0.026-0.877,0.026c-16.801,0-29.49-14.102-29.49-30.603
				c0-16.701,12.733-30.802,29.634-30.802c0.299,0,0.732,0.011,0.732,0.021v-8.621c-22,0-39.879,17.401-39.879,39.702
				c0,21.802,17.689,38.902,39.191,38.902c0.263,0,0.688-0.022,0.688-0.028V133.964z"/>
			<g>
				<rect x="554.999" y="65.326" fill="#00FFFF" width="40.503" height="8.66"/>
				<rect x="554.999" y="98.699" fill="#00FFFF" width="40.503" height="8.66"/>
				<rect x="554.999" y="132.071" fill="#00FFFF" width="40.503" height="8.66"/>
			</g>
			<path fill="#00FFFF" d="M824.86,122.089l-8.601,18.901h-10.101l36.002-78.604l36.002,78.604h-10.101l-8.6-18.901H824.86z
				 M842.16,82.987l-13.4,30.502h26.802L842.16,82.987z"/>
			<g>
				<path fill="#00FFFF" d="M686.317,140.99h-11.4l-22.201-31.902h-3.9v31.902h-9.4V65.586h11.4c6.701,0,13.9,0.1,19.901,3.5
					c6.3,3.7,9.9,10.801,9.9,18.001c0,10.801-7.2,19.801-18.101,21.102L686.317,140.99z M648.815,101.288h3
					c9.601,0,20.002-1.801,20.002-13.801c0-11.801-11.201-13.501-20.502-13.501h-2.5V101.288z"/>
			</g>
		</g>
	</g>
	<g>
		<g>
			<path fill="#FFFFFF" d="M73.268,65.586h9.201c14.201,0,27.602,3.7,27.602,20.701c0,5.5-3,11.9-8.101,14.301v0.2
				c8.901,1.6,15.101,10.301,15.101,19.101c0,15.102-12.901,21.102-26.202,21.102H73.268V65.586z M82.668,98.988h2.4
				c8.9,0,16.201-1.8,16.201-12.601c0-10.601-7.201-12.4-16.001-12.4h-2.601V98.988z M82.668,132.59h7.201
				c8.701,0,17.801-2.601,17.801-13.301c0-10.601-10.801-12.801-19.201-12.801h-5.801V132.59z"/>
			<path fill="#FFFFFF" d="M231.271,103.288c0,22.401-17.701,39.302-39.502,39.302c-21.801,0-39.502-16.9-39.502-39.302
				c0-21.602,17.901-39.303,39.502-39.303C213.37,63.986,231.271,81.687,231.271,103.288z M221.871,103.288
				c0-16.602-12.401-30.502-30.102-30.502c-17.701,0-30.102,13.9-30.102,30.502c0,17.201,13.801,30.502,30.102,30.502
				C208.07,133.79,221.871,120.49,221.871,103.288z M209.769,103.288c0-9.797-7.415-18-18-18c-10.585,0-18,8.203-18,18
				c0,10.151,8.252,18,18,18C201.517,121.288,209.769,113.439,209.769,103.288z"/>
			<path fill="#FFFFFF" d="M278.466,85.588v24.5c0,12.301,3.7,23.702,18.201,23.702s18.201-11.401,18.201-23.702v-24.5h9.4v27.7
				c0,16.602-10.3,29.302-27.602,29.302c-17.301,0-27.602-12.7-27.602-29.302v-27.7H278.466z"/>
			<path fill="#FFFFFF" d="M366.364,61.986l56.604,59.304V85.588h9.4v58.503l-56.603-59.304v36.201h-9.401V61.986z"/>
			<path fill="#FFFFFF" d="M728.163,65.586h9.2c14.201,0,27.602,3.7,27.602,20.701c0,5.5-3,11.9-8.101,14.301v0.2
				c8.901,1.6,15.102,10.301,15.102,19.101c0,15.102-12.901,21.102-26.202,21.102h-17.601V65.586z M737.563,98.988h2.4
				c8.9,0,16.201-1.8,16.201-12.601c0-10.601-7.201-12.4-16.001-12.4h-2.601V98.988z M737.563,132.59h7.2
				c8.701,0,17.802-2.601,17.802-13.301c0-10.601-10.801-12.801-19.201-12.801h-5.801V132.59z"/>
			<path fill="#FFFFFF" d="M1032.26,65.586h12.301l-33.902,33.901l34.503,41.503h-12.701l-28.401-35.103l-3.801,3.601v31.502h-9.4
				V65.586h9.4v32.702L1032.26,65.586z"/>
			<path fill="#FFFFFF" d="M512.215,133.937c-1,0.032-1.104,0.054-1.668,0.054c-16.801,0-29.593-14.102-29.593-30.603
				c0-16.701,12.887-30.802,29.788-30.802c0.494,0,1.472,0.016,1.472,0.041v-8.623c0-0.003-0.373-0.018-0.568-0.018
				c-22.201,0-40.094,17.401-40.094,39.702c0,21.802,17.788,38.902,39.289,38.902c0.456,0,1.372-0.031,1.372-0.049V133.937z"/>
			<path fill="#FFFFFF" d="M950.215,133.964c0,0.014-0.509,0.026-0.877,0.026c-16.801,0-29.49-14.102-29.49-30.603
				c0-16.701,12.733-30.802,29.634-30.802c0.299,0,0.732,0.011,0.732,0.021v-8.621c-22,0-39.879,17.401-39.879,39.702
				c0,21.802,17.689,38.902,39.191,38.902c0.263,0,0.688-0.022,0.688-0.028V133.964z"/>
			<g>
				<rect x="554.999" y="65.326" fill="#FFFFFF" width="40.503" height="8.66"/>
				<rect x="554.999" y="98.699" fill="#FFFFFF" width="40.503" height="8.66"/>
				<rect x="554.999" y="132.071" fill="#FFFFFF" width="40.503" height="8.66"/>
			</g>
			<path fill="#FFFFFF" d="M824.86,122.089l-8.601,18.901h-10.101l36.002-78.604l36.002,78.604h-10.101l-8.6-18.901H824.86z
				 M842.16,82.987l-13.4,30.502h26.802L842.16,82.987z"/>
			<g>
				<path fill="#FFFFFF" d="M686.317,140.99h-11.4l-22.201-31.902h-3.9v31.902h-9.4V65.586h11.4c6.701,0,13.9,0.1,19.901,3.5
					c6.3,3.7,9.9,10.801,9.9,18.001c0,10.801-7.2,19.801-18.101,21.102L686.317,140.99z M648.815,101.288h3
					c9.601,0,20.002-1.801,20.002-13.801c0-11.801-11.201-13.501-20.502-13.501h-2.5V101.288z"/>
			</g>
		</g>
		<g>
			<path fill="#B15395" d="M73.268,65.586h9.201c14.201,0,27.602,3.7,27.602,20.701c0,5.5-3,11.9-8.101,14.301v0.2
				c8.901,1.6,15.101,10.301,15.101,19.101c0,15.102-12.901,21.102-26.202,21.102H73.268V65.586z M82.668,98.988h2.4
				c8.9,0,16.201-1.8,16.201-12.601c0-10.601-7.201-12.4-16.001-12.4h-2.601V98.988z M82.668,132.59h7.201
				c8.701,0,17.801-2.601,17.801-13.301c0-10.601-10.801-12.801-19.201-12.801h-5.801V132.59z"/>
			<path fill="#B15395" d="M231.271,103.288c0,22.401-17.701,39.302-39.502,39.302c-21.801,0-39.502-16.9-39.502-39.302
				c0-21.602,17.901-39.303,39.502-39.303C213.37,63.986,231.271,81.687,231.271,103.288z M221.871,103.288
				c0-16.602-12.401-30.502-30.102-30.502c-17.701,0-30.102,13.9-30.102,30.502c0,17.201,13.801,30.502,30.102,30.502
				C208.07,133.79,221.871,120.49,221.871,103.288z M209.769,103.288c0-9.797-7.415-18-18-18c-10.585,0-18,8.203-18,18
				c0,10.151,8.252,18,18,18C201.517,121.288,209.769,113.439,209.769,103.288z"/>
			<path fill="#B15395" d="M278.466,85.588v24.5c0,12.301,3.7,23.702,18.201,23.702s18.201-11.401,18.201-23.702v-24.5h9.4v27.7
				c0,16.602-10.3,29.302-27.602,29.302c-17.301,0-27.602-12.7-27.602-29.302v-27.7H278.466z"/>
			<path fill="#B15395" d="M366.364,61.986l56.604,59.304V85.588h9.4v58.503l-56.603-59.304v36.201h-9.401V61.986z"/>
			<path fill="#B15395" d="M728.163,65.586h9.2c14.201,0,27.602,3.7,27.602,20.701c0,5.5-3,11.9-8.101,14.301v0.2
				c8.901,1.6,15.102,10.301,15.102,19.101c0,15.102-12.901,21.102-26.202,21.102h-17.601V65.586z M737.563,98.988h2.4
				c8.9,0,16.201-1.8,16.201-12.601c0-10.601-7.201-12.4-16.001-12.4h-2.601V98.988z M737.563,132.59h7.2
				c8.701,0,17.802-2.601,17.802-13.301c0-10.601-10.801-12.801-19.201-12.801h-5.801V132.59z"/>
			<path fill="#B15395" d="M1032.26,65.586h12.301l-33.902,33.901l34.503,41.503h-12.701l-28.401-35.103l-3.801,3.601v31.502h-9.4
				V65.586h9.4v32.702L1032.26,65.586z"/>
			<path fill="#B15395" d="M512.215,133.937c-1,0.032-1.104,0.054-1.668,0.054c-16.801,0-29.593-14.102-29.593-30.603
				c0-16.701,12.887-30.802,29.788-30.802c0.494,0,1.472,0.016,1.472,0.041v-8.623c0-0.003-0.373-0.018-0.568-0.018
				c-22.201,0-40.094,17.401-40.094,39.702c0,21.802,17.788,38.902,39.289,38.902c0.456,0,1.372-0.031,1.372-0.049V133.937z"/>
			<path fill="#B15395" d="M950.215,133.964c0,0.014-0.509,0.026-0.877,0.026c-16.801,0-29.49-14.102-29.49-30.603
				c0-16.701,12.733-30.802,29.634-30.802c0.299,0,0.732,0.011,0.732,0.021v-8.621c-22,0-39.879,17.401-39.879,39.702
				c0,21.802,17.689,38.902,39.191,38.902c0.263,0,0.688-0.022,0.688-0.028V133.964z"/>
			<g>
				<rect x="554.999" y="65.326" fill="#B15395" width="40.503" height="8.66"/>
				<rect x="554.999" y="98.699" fill="#B15395" width="40.503" height="8.66"/>
				<rect x="554.999" y="132.071" fill="#B15395" width="40.503" height="8.66"/>
			</g>
			<path fill="#B15395" d="M824.86,122.089l-8.601,18.901h-10.101l36.002-78.604l36.002,78.604h-10.101l-8.6-18.901H824.86z
				 M842.16,82.987l-13.4,30.502h26.802L842.16,82.987z"/>
			<g>
				<path fill="#B15395" d="M686.317,140.99h-11.4l-22.201-31.902h-3.9v31.902h-9.4V65.586h11.4c6.701,0,13.9,0.1,19.901,3.5
					c6.3,3.7,9.9,10.801,9.9,18.001c0,10.801-7.2,19.801-18.101,21.102L686.317,140.99z M648.815,101.288h3
					c9.601,0,20.002-1.801,20.002-13.801c0-11.801-11.201-13.501-20.502-13.501h-2.5V101.288z"/>
			</g>
		</g>
		<g>
			<path fill="none" stroke="#6EC5D7" d="M73.268,65.586h9.201c14.201,0,27.602,3.7,27.602,20.701c0,5.5-3,11.9-8.101,14.301v0.2
				c8.901,1.6,15.101,10.301,15.101,19.101c0,15.102-12.901,21.102-26.202,21.102H73.268V65.586z M82.668,98.988h2.4
				c8.9,0,16.201-1.8,16.201-12.601c0-10.601-7.201-12.4-16.001-12.4h-2.601V98.988z M82.668,132.59h7.201
				c8.701,0,17.801-2.601,17.801-13.301c0-10.601-10.801-12.801-19.201-12.801h-5.801V132.59z"/>
			<path fill="none" stroke="#6EC5D7" d="M231.271,103.288c0,22.401-17.701,39.302-39.502,39.302
				c-21.801,0-39.502-16.9-39.502-39.302c0-21.602,17.901-39.303,39.502-39.303C213.37,63.986,231.271,81.687,231.271,103.288z
				 M221.871,103.288c0-16.602-12.401-30.502-30.102-30.502c-17.701,0-30.102,13.9-30.102,30.502
				c0,17.201,13.801,30.502,30.102,30.502C208.07,133.79,221.871,120.49,221.871,103.288z M209.769,103.288c0-9.797-7.415-18-18-18
				c-10.585,0-18,8.203-18,18c0,10.151,8.252,18,18,18C201.517,121.288,209.769,113.439,209.769,103.288z"/>
			<path fill="none" stroke="#6EC5D7" d="M278.466,85.588v24.5c0,12.301,3.7,23.702,18.201,23.702s18.201-11.401,18.201-23.702
				v-24.5h9.4v27.7c0,16.602-10.3,29.302-27.602,29.302c-17.301,0-27.602-12.7-27.602-29.302v-27.7H278.466z"/>
			<path fill="none" stroke="#6EC5D7" d="M366.364,61.986l56.604,59.304V85.588h9.4v58.503l-56.603-59.304v36.201h-9.401V61.986z"/>
			<path fill="none" stroke="#6EC5D7" d="M728.163,65.586h9.2c14.201,0,27.602,3.7,27.602,20.701c0,5.5-3,11.9-8.101,14.301v0.2
				c8.901,1.6,15.102,10.301,15.102,19.101c0,15.102-12.901,21.102-26.202,21.102h-17.601V65.586z M737.563,98.988h2.4
				c8.9,0,16.201-1.8,16.201-12.601c0-10.601-7.201-12.4-16.001-12.4h-2.601V98.988z M737.563,132.59h7.2
				c8.701,0,17.802-2.601,17.802-13.301c0-10.601-10.801-12.801-19.201-12.801h-5.801V132.59z"/>
			<path fill="none" stroke="#6EC5D7" d="M1032.26,65.586h12.301l-33.902,33.901l34.503,41.503h-12.701l-28.401-35.103l-3.801,3.601
				v31.502h-9.4V65.586h9.4v32.702L1032.26,65.586z"/>
			<path fill="none" stroke="#6EC5D7" d="M512.215,133.937c-1,0.032-1.104,0.054-1.668,0.054c-16.801,0-29.593-14.102-29.593-30.603
				c0-16.701,12.887-30.802,29.788-30.802c0.494,0,1.472,0.016,1.472,0.041v-8.623c0-0.003-0.373-0.018-0.568-0.018
				c-22.201,0-40.094,17.401-40.094,39.702c0,21.802,17.788,38.902,39.289,38.902c0.456,0,1.372-0.031,1.372-0.049V133.937z"/>
			<path fill="none" stroke="#6EC5D7" d="M950.215,133.964c0,0.014-0.509,0.026-0.877,0.026c-16.801,0-29.49-14.102-29.49-30.603
				c0-16.701,12.733-30.802,29.634-30.802c0.299,0,0.732,0.011,0.732,0.021v-8.621c-22,0-39.879,17.401-39.879,39.702
				c0,21.802,17.689,38.902,39.191,38.902c0.263,0,0.688-0.022,0.688-0.028V133.964z"/>
			<g>
				<rect x="554.999" y="65.326" fill="none" stroke="#6EC5D7" width="40.503" height="8.66"/>
				<rect x="554.999" y="98.699" fill="none" stroke="#6EC5D7" width="40.503" height="8.66"/>
				<rect x="554.999" y="132.071" fill="none" stroke="#6EC5D7" width="40.503" height="8.66"/>
			</g>
			<path fill="none" stroke="#6EC5D7" d="M824.86,122.089l-8.601,18.901h-10.101l36.002-78.604l36.002,78.604h-10.101l-8.6-18.901
				H824.86z M842.16,82.987l-13.4,30.502h26.802L842.16,82.987z"/>
			<g>
				<path fill="none" stroke="#6EC5D7" d="M686.317,140.99h-11.4l-22.201-31.902h-3.9v31.902h-9.4V65.586h11.4
					c6.701,0,13.9,0.1,19.901,3.5c6.3,3.7,9.9,10.801,9.9,18.001c0,10.801-7.2,19.801-18.101,21.102L686.317,140.99z
					 M648.815,101.288h3c9.601,0,20.002-1.801,20.002-13.801c0-11.801-11.201-13.501-20.502-13.501h-2.5V101.288z"/>
			</g>
		</g>
	</g>
	<g>
		<g>
			<path fill="#FFFFFF" d="M73.268,60.586h9.201c14.201,0,27.602,3.7,27.602,20.701c0,5.5-3,11.9-8.101,14.301v0.2
				c8.901,1.6,15.101,10.301,15.101,19.101c0,15.102-12.901,21.102-26.202,21.102H73.268V60.586z M82.668,93.988h2.4
				c8.9,0,16.201-1.8,16.201-12.601c0-10.601-7.201-12.4-16.001-12.4h-2.601V93.988z M82.668,127.59h7.201
				c8.701,0,17.801-2.601,17.801-13.301c0-10.601-10.801-12.801-19.201-12.801h-5.801V127.59z"/>
			<path fill="#FFFFFF" d="M231.271,98.288c0,22.401-17.701,39.302-39.502,39.302c-21.801,0-39.502-16.9-39.502-39.302
				c0-21.602,17.901-39.303,39.502-39.303C213.37,58.986,231.271,76.687,231.271,98.288z M221.871,98.288
				c0-16.602-12.401-30.502-30.102-30.502c-17.701,0-30.102,13.9-30.102,30.502c0,17.201,13.801,30.502,30.102,30.502
				C208.07,128.79,221.871,115.49,221.871,98.288z M209.769,98.288c0-9.797-7.415-18-18-18c-10.585,0-18,8.203-18,18
				c0,10.151,8.252,18,18,18C201.517,116.288,209.769,108.439,209.769,98.288z"/>
			<path fill="#FFFFFF" d="M278.466,80.588v24.5c0,12.301,3.7,23.702,18.201,23.702s18.201-11.401,18.201-23.702v-24.5h9.4v27.7
				c0,16.602-10.3,29.302-27.602,29.302c-17.301,0-27.602-12.7-27.602-29.302v-27.7H278.466z"/>
			<path fill="#FFFFFF" d="M366.364,56.986l56.604,59.304V80.588h9.4v58.503l-56.603-59.304v36.201h-9.401V56.986z"/>
			<path fill="#FFFFFF" d="M728.163,60.586h9.2c14.201,0,27.602,3.7,27.602,20.701c0,5.5-3,11.9-8.101,14.301v0.2
				c8.901,1.6,15.102,10.301,15.102,19.101c0,15.102-12.901,21.102-26.202,21.102h-17.601V60.586z M737.563,93.988h2.4
				c8.9,0,16.201-1.8,16.201-12.601c0-10.601-7.201-12.4-16.001-12.4h-2.601V93.988z M737.563,127.59h7.2
				c8.701,0,17.802-2.601,17.802-13.301c0-10.601-10.801-12.801-19.201-12.801h-5.801V127.59z"/>
			<path fill="#FFFFFF" d="M1032.26,60.586h12.301l-33.902,33.901l34.503,41.503h-12.701l-28.401-35.103l-3.801,3.601v31.502h-9.4
				V60.586h9.4v32.702L1032.26,60.586z"/>
			<path fill="#FFFFFF" d="M512.215,128.937c-1,0.032-1.104,0.054-1.668,0.054c-16.801,0-29.593-14.102-29.593-30.603
				c0-16.701,12.887-30.802,29.788-30.802c0.494,0,1.472,0.016,1.472,0.041v-8.623c0-0.003-0.373-0.018-0.568-0.018
				c-22.201,0-40.094,17.401-40.094,39.702c0,21.802,17.788,38.902,39.289,38.902c0.456,0,1.372-0.031,1.372-0.049V128.937z"/>
			<path fill="#FFFFFF" d="M950.215,128.964c0,0.014-0.509,0.026-0.877,0.026c-16.801,0-29.49-14.102-29.49-30.603
				c0-16.701,12.733-30.802,29.634-30.802c0.299,0,0.732,0.011,0.732,0.021v-8.621c-22,0-39.879,17.401-39.879,39.702
				c0,21.802,17.689,38.902,39.191,38.902c0.263,0,0.688-0.022,0.688-0.028V128.964z"/>
			<g>
				<rect x="554.999" y="60.326" fill="#FFFFFF" width="40.503" height="8.66"/>
				<rect x="554.999" y="93.699" fill="#FFFFFF" width="40.503" height="8.66"/>
				<rect x="554.999" y="127.071" fill="#FFFFFF" width="40.503" height="8.66"/>
			</g>
			<path fill="#FFFFFF" d="M824.86,117.089l-8.601,18.901h-10.101l36.002-78.604l36.002,78.604h-10.101l-8.6-18.901H824.86z
				 M842.16,77.987l-13.4,30.502h26.802L842.16,77.987z"/>
			<g>
				<path fill="#FFFFFF" d="M686.317,135.99h-11.4l-22.201-31.902h-3.9v31.902h-9.4V60.586h11.4c6.701,0,13.9,0.1,19.901,3.5
					c6.3,3.7,9.9,10.801,9.9,18.001c0,10.801-7.2,19.801-18.101,21.102L686.317,135.99z M648.815,96.288h3
					c9.601,0,20.002-1.801,20.002-13.801c0-11.801-11.201-13.501-20.502-13.501h-2.5V96.288z"/>
			</g>
		</g>
		<g>
			<path fill="#FFFFFF" d="M73.268,60.586h9.201c14.201,0,27.602,3.7,27.602,20.701c0,5.5-3,11.9-8.101,14.301v0.2
				c8.901,1.6,15.101,10.301,15.101,19.101c0,15.102-12.901,21.102-26.202,21.102H73.268V60.586z M82.668,93.988h2.4
				c8.9,0,16.201-1.8,16.201-12.601c0-10.601-7.201-12.4-16.001-12.4h-2.601V93.988z M82.668,127.59h7.201
				c8.701,0,17.801-2.601,17.801-13.301c0-10.601-10.801-12.801-19.201-12.801h-5.801V127.59z"/>
			<path fill="#FFFFFF" d="M231.271,98.288c0,22.401-17.701,39.302-39.502,39.302c-21.801,0-39.502-16.9-39.502-39.302
				c0-21.602,17.901-39.303,39.502-39.303C213.37,58.986,231.271,76.687,231.271,98.288z M221.871,98.288
				c0-16.602-12.401-30.502-30.102-30.502c-17.701,0-30.102,13.9-30.102,30.502c0,17.201,13.801,30.502,30.102,30.502
				C208.07,128.79,221.871,115.49,221.871,98.288z M209.769,98.288c0-9.797-7.415-18-18-18c-10.585,0-18,8.203-18,18
				c0,10.151,8.252,18,18,18C201.517,116.288,209.769,108.439,209.769,98.288z"/>
			<path fill="#FFFFFF" d="M278.466,80.588v24.5c0,12.301,3.7,23.702,18.201,23.702s18.201-11.401,18.201-23.702v-24.5h9.4v27.7
				c0,16.602-10.3,29.302-27.602,29.302c-17.301,0-27.602-12.7-27.602-29.302v-27.7H278.466z"/>
			<path fill="#FFFFFF" d="M366.364,56.986l56.604,59.304V80.588h9.4v58.503l-56.603-59.304v36.201h-9.401V56.986z"/>
			<path fill="#FFFFFF" d="M728.163,60.586h9.2c14.201,0,27.602,3.7,27.602,20.701c0,5.5-3,11.9-8.101,14.301v0.2
				c8.901,1.6,15.102,10.301,15.102,19.101c0,15.102-12.901,21.102-26.202,21.102h-17.601V60.586z M737.563,93.988h2.4
				c8.9,0,16.201-1.8,16.201-12.601c0-10.601-7.201-12.4-16.001-12.4h-2.601V93.988z M737.563,127.59h7.2
				c8.701,0,17.802-2.601,17.802-13.301c0-10.601-10.801-12.801-19.201-12.801h-5.801V127.59z"/>
			<path fill="#FFFFFF" d="M1032.26,60.586h12.301l-33.902,33.901l34.503,41.503h-12.701l-28.401-35.103l-3.801,3.601v31.502h-9.4
				V60.586h9.4v32.702L1032.26,60.586z"/>
			<path fill="#FFFFFF" d="M512.215,128.937c-1,0.032-1.104,0.054-1.668,0.054c-16.801,0-29.593-14.102-29.593-30.603
				c0-16.701,12.887-30.802,29.788-30.802c0.494,0,1.472,0.016,1.472,0.041v-8.623c0-0.003-0.373-0.018-0.568-0.018
				c-22.201,0-40.094,17.401-40.094,39.702c0,21.802,17.788,38.902,39.289,38.902c0.456,0,1.372-0.031,1.372-0.049V128.937z"/>
			<path fill="#FFFFFF" d="M950.215,128.964c0,0.014-0.509,0.026-0.877,0.026c-16.801,0-29.49-14.102-29.49-30.603
				c0-16.701,12.733-30.802,29.634-30.802c0.299,0,0.732,0.011,0.732,0.021v-8.621c-22,0-39.879,17.401-39.879,39.702
				c0,21.802,17.689,38.902,39.191,38.902c0.263,0,0.688-0.022,0.688-0.028V128.964z"/>
			<g>
				<rect x="554.999" y="60.326" fill="#FFFFFF" width="40.503" height="8.66"/>
				<rect x="554.999" y="93.699" fill="#FFFFFF" width="40.503" height="8.66"/>
				<rect x="554.999" y="127.071" fill="#FFFFFF" width="40.503" height="8.66"/>
			</g>
			<path fill="#FFFFFF" d="M824.86,117.089l-8.601,18.901h-10.101l36.002-78.604l36.002,78.604h-10.101l-8.6-18.901H824.86z
				 M842.16,77.987l-13.4,30.502h26.802L842.16,77.987z"/>
			<g>
				<path fill="#FFFFFF" d="M686.317,135.99h-11.4l-22.201-31.902h-3.9v31.902h-9.4V60.586h11.4c6.701,0,13.9,0.1,19.901,3.5
					c6.3,3.7,9.9,10.801,9.9,18.001c0,10.801-7.2,19.801-18.101,21.102L686.317,135.99z M648.815,96.288h3
					c9.601,0,20.002-1.801,20.002-13.801c0-11.801-11.201-13.501-20.502-13.501h-2.5V96.288z"/>
			</g>
		</g>
		<g>
			<path fill="none" stroke="#6EC5D7" d="M73.268,60.586h9.201c14.201,0,27.602,3.7,27.602,20.701c0,5.5-3,11.9-8.101,14.301v0.2
				c8.901,1.6,15.101,10.301,15.101,19.101c0,15.102-12.901,21.102-26.202,21.102H73.268V60.586z M82.668,93.988h2.4
				c8.9,0,16.201-1.8,16.201-12.601c0-10.601-7.201-12.4-16.001-12.4h-2.601V93.988z M82.668,127.59h7.201
				c8.701,0,17.801-2.601,17.801-13.301c0-10.601-10.801-12.801-19.201-12.801h-5.801V127.59z"/>
			<path fill="none" stroke="#6EC5D7" d="M231.271,98.288c0,22.401-17.701,39.302-39.502,39.302
				c-21.801,0-39.502-16.9-39.502-39.302c0-21.602,17.901-39.303,39.502-39.303C213.37,58.986,231.271,76.687,231.271,98.288z
				 M221.871,98.288c0-16.602-12.401-30.502-30.102-30.502c-17.701,0-30.102,13.9-30.102,30.502
				c0,17.201,13.801,30.502,30.102,30.502C208.07,128.79,221.871,115.49,221.871,98.288z M209.769,98.288c0-9.797-7.415-18-18-18
				c-10.585,0-18,8.203-18,18c0,10.151,8.252,18,18,18C201.517,116.288,209.769,108.439,209.769,98.288z"/>
			<path fill="none" stroke="#6EC5D7" d="M278.466,80.588v24.5c0,12.301,3.7,23.702,18.201,23.702s18.201-11.401,18.201-23.702
				v-24.5h9.4v27.7c0,16.602-10.3,29.302-27.602,29.302c-17.301,0-27.602-12.7-27.602-29.302v-27.7H278.466z"/>
			<path fill="none" stroke="#6EC5D7" d="M366.364,56.986l56.604,59.304V80.588h9.4v58.503l-56.603-59.304v36.201h-9.401V56.986z"/>
			<path fill="none" stroke="#6EC5D7" d="M728.163,60.586h9.2c14.201,0,27.602,3.7,27.602,20.701c0,5.5-3,11.9-8.101,14.301v0.2
				c8.901,1.6,15.102,10.301,15.102,19.101c0,15.102-12.901,21.102-26.202,21.102h-17.601V60.586z M737.563,93.988h2.4
				c8.9,0,16.201-1.8,16.201-12.601c0-10.601-7.201-12.4-16.001-12.4h-2.601V93.988z M737.563,127.59h7.2
				c8.701,0,17.802-2.601,17.802-13.301c0-10.601-10.801-12.801-19.201-12.801h-5.801V127.59z"/>
			<path fill="none" stroke="#6EC5D7" d="M1032.26,60.586h12.301l-33.902,33.901l34.503,41.503h-12.701l-28.401-35.103l-3.801,3.601
				v31.502h-9.4V60.586h9.4v32.702L1032.26,60.586z"/>
			<path fill="none" stroke="#6EC5D7" d="M512.215,128.937c-1,0.032-1.104,0.054-1.668,0.054c-16.801,0-29.593-14.102-29.593-30.603
				c0-16.701,12.887-30.802,29.788-30.802c0.494,0,1.472,0.016,1.472,0.041v-8.623c0-0.003-0.373-0.018-0.568-0.018
				c-22.201,0-40.094,17.401-40.094,39.702c0,21.802,17.788,38.902,39.289,38.902c0.456,0,1.372-0.031,1.372-0.049V128.937z"/>
			<path fill="none" stroke="#6EC5D7" d="M950.215,128.964c0,0.014-0.509,0.026-0.877,0.026c-16.801,0-29.49-14.102-29.49-30.603
				c0-16.701,12.733-30.802,29.634-30.802c0.299,0,0.732,0.011,0.732,0.021v-8.621c-22,0-39.879,17.401-39.879,39.702
				c0,21.802,17.689,38.902,39.191,38.902c0.263,0,0.688-0.022,0.688-0.028V128.964z"/>
			<g>
				<rect x="554.999" y="60.326" fill="none" stroke="#6EC5D7" width="40.503" height="8.66"/>
				<rect x="554.999" y="93.699" fill="none" stroke="#6EC5D7" width="40.503" height="8.66"/>
				<rect x="554.999" y="127.071" fill="none" stroke="#6EC5D7" width="40.503" height="8.66"/>
			</g>
			<path fill="none" stroke="#6EC5D7" d="M824.86,117.089l-8.601,18.901h-10.101l36.002-78.604l36.002,78.604h-10.101l-8.6-18.901
				H824.86z M842.16,77.987l-13.4,30.502h26.802L842.16,77.987z"/>
			<g>
				<path fill="none" stroke="#6EC5D7" d="M686.317,135.99h-11.4l-22.201-31.902h-3.9v31.902h-9.4V60.586h11.4
					c6.701,0,13.9,0.1,19.901,3.5c6.3,3.7,9.9,10.801,9.9,18.001c0,10.801-7.2,19.801-18.101,21.102L686.317,135.99z
					 M648.815,96.288h3c9.601,0,20.002-1.801,20.002-13.801c0-11.801-11.201-13.501-20.502-13.501h-2.5V96.288z"/>
			</g>
		</g>
	</g>
</g>
</svg>
